<svg width="3906" height="1704" xmlns="http://www.w3.org/2000/svg" xmlns:xlink="http://www.w3.org/1999/xlink" xml:space="preserve" overflow="hidden"><g transform="translate(-92 -437)"><rect x="1237" y="620" width="260" height="390" fill="#FAE6F2" fill-opacity="0.14902"/><rect x="1528" y="620" width="260" height="390" fill="#F5CBE4" fill-opacity="0.14902"/><rect x="1819" y="620" width="260" height="390" fill="#EB97C8" fill-opacity="0.25098"/><rect x="2110" y="620" width="260" height="390" fill="#EB97C8" fill-opacity="0.309804"/><rect x="2402" y="620" width="260" height="390" fill="#B10069" fill-opacity="0.309804"/><rect x="2693" y="620" width="260" height="390" fill="#7F1854" fill-opacity="0.25098"/><rect x="1237" y="1050" width="260" height="390" fill="#551038" fill-opacity="0.14902"/><rect x="1528" y="1050" width="260" height="390" fill="#E263AD" fill-opacity="0.14902"/><rect x="1819" y="1050" width="260" height="390" fill="#760046" fill-opacity="0.25098"/><rect x="2110" y="1050" width="260" height="390" fill="#582156"/><rect x="2402" y="1050" width="260" height="390" fill="#F5CBE4" fill-opacity="0.309804"/><rect x="2693" y="1050" width="260" height="390" fill="#E263AD" fill-opacity="0.309804"/><rect x="1237" y="1480" width="260" height="390" fill="#760046" fill-opacity="0.14902"/><rect x="1528" y="1480" width="260" height="390" fill="#B10069" fill-opacity="0.14902"/><rect x="1819" y="1480" width="260" height="390" fill="#EB97C8" fill-opacity="0.25098"/><rect x="2402" y="1480" width="260" height="390" fill="#F5CBE4" fill-opacity="0.309804"/><rect x="2693" y="1480" width="260" height="390" fill="#EB97C8" fill-opacity="0.2"/><rect x="2110" y="1480" width="260" height="390" fill="#F5CBE4" fill-opacity="0.309804"/><text fill="#7F7F7F" font-family="Avenir Next LT Pro,Avenir Next LT Pro_MSFontService,sans-serif" font-style="italic" font-weight="400" font-size="92" transform="matrix(1 0 0 1 2582.1 1997)">52.1029</text><text fill="#7F7F7F" font-family="Avenir Next LT Pro,Avenir Next LT Pro_MSFontService,sans-serif" font-style="italic" font-weight="400" font-size="92" transform="matrix(1 0 0 1 2925.85 1997)">°</text><text fill="#7F7F7F" font-family="Avenir Next LT Pro,Avenir Next LT Pro_MSFontService,sans-serif" font-style="italic" font-weight="400" font-size="92" transform="matrix(1 0 0 1 2985.44 1997)">N, 5.1823</text><text fill="#7F7F7F" font-family="Avenir Next LT Pro,Avenir Next LT Pro_MSFontService,sans-serif" font-style="italic" font-weight="400" font-size="92" transform="matrix(1 0 0 1 3388.91 1997)">°</text><text fill="#7F7F7F" font-family="Avenir Next LT Pro,Avenir Next LT Pro_MSFontService,sans-serif" font-style="italic" font-weight="400" font-size="92" transform="matrix(1 0 0 1 3448.49 1997)">E</text><path d="M2148.75 1499.92 2332.08 1499.92 2332.08 1509.08 2148.75 1509.08ZM2153.33 1527.42 2107.5 1504.5 2153.33 1481.58ZM2327.5 1481.58 2373.33 1504.5 2327.5 1527.42Z" fill="#AA2070"/><path d="M2433.08 1091.75 2433.08 1399.01 2423.92 1399.01 2423.92 1091.75ZM2405.58 1096.33 2428.5 1050.5 2451.42 1096.33ZM2451.42 1394.43 2428.5 1440.26 2405.58 1394.43Z" fill="#AA2070"/><text fill="#551038" font-family="Avenir Next LT Pro,Avenir Next LT Pro_MSFontService,sans-serif" font-weight="400" font-size="92" transform="matrix(1 0 0 1 2138.4 1622)">4 km</text><text fill="#551038" font-family="Avenir Next LT Pro,Avenir Next LT Pro_MSFontService,sans-serif" font-weight="400" font-size="92" transform="matrix(-1.83697e-16 -1 1 -1.83697e-16 2531.98 1347)">6</text><text fill="#551038" font-family="Avenir Next LT Pro,Avenir Next LT Pro_MSFontService,sans-serif" font-weight="400" font-size="92" transform="matrix(-1.83697e-16 -1 1 -1.83697e-16 2531.98 1271)">km</text><rect x="363" y="620" width="260" height="390" fill="#FAE6F2" fill-opacity="0.14902"/><rect x="654" y="620" width="260" height="390" fill="#EB97C8" fill-opacity="0.101961"/><rect x="946" y="620" width="259" height="390" fill="#7F1854" fill-opacity="0.101961"/><rect x="363" y="1050" width="260" height="390" fill="#F5CBE4" fill-opacity="0.14902"/><rect x="654" y="1050" width="260" height="390" fill="#E263AD" fill-opacity="0.101961"/><rect x="946" y="1050" width="259" height="390" fill="#760046" fill-opacity="0.101961"/><rect x="363" y="1480" width="260" height="390" fill="#F5CBE4" fill-opacity="0.14902"/><rect x="654" y="1480" width="260" height="390" fill="#B10069" fill-opacity="0.101961"/><rect x="946" y="1480" width="259" height="390" fill="#7F1854" fill-opacity="0.101961"/><rect x="2984" y="620" width="260" height="390" fill="#7F1854" fill-opacity="0.121569"/><rect x="2984" y="1050" width="260" height="390" fill="#E263AD" fill-opacity="0.121569"/><rect x="2984" y="1480" width="260" height="390" fill="#EB97C8" fill-opacity="0.121569"/><rect x="3275" y="620" width="260" height="390" fill="#7F1854" fill-opacity="0.101961"/><rect x="3275" y="1050" width="260" height="390" fill="#E263AD" fill-opacity="0.101961"/><rect x="3275" y="1480" width="260" height="390" fill="#EB97C8" fill-opacity="0.101961"/></g></svg>