<svg width="3172" height="1425" xmlns="http://www.w3.org/2000/svg" xmlns:xlink="http://www.w3.org/1999/xlink" xml:space="preserve" overflow="hidden"><g transform="translate(-363 -613)"><path d="M1092 1103.43 1316.15 1205 1510.93 1167.63 1746.53 1058.29 1936.51 1171.14C1987.32 1129.76 2099.19 1088.38 2150 1047" stroke="#AA2070" stroke-width="8.02083" stroke-miterlimit="8" fill="none" fill-rule="evenodd"/><path d="M3418.55 620 3535 620 3535 714.339ZM2915.23 620 3061.23 620 3016.2 647.282ZM2536.01 620 2838.04 620 2706.9 770.965 2659.84 900.501 2481.55 996.244 2282.72 952.072 2159 1036 2238.53 740.044 2446.21 775.382Z" fill="#BF55BB" fill-rule="evenodd" fill-opacity="0.160784"/><path d="M2567.15 620 2764 620 2707.52 660.575 2658.86 863.311 2477.5 970.096 2282.86 925.879 2159 1032 2256.32 757.853 2455.38 802.07Z" fill="#AA2070" fill-rule="evenodd" fill-opacity="0.219608"/><path d="M2590.89 620 2690 620 2654.23 828.389 2486.15 934.403 2278.27 894.648 2150 1036 2251.73 793.051 2468.46 859.31 2574.61 695.872Z" fill="#AA2070" fill-rule="evenodd" fill-opacity="0.278431"/><path d="M2158 1050 2272.82 846.572 2484.79 912.908 2612.85 758.126 2649 614" stroke="#582156" stroke-width="8.02083" stroke-linecap="square" stroke-miterlimit="8" stroke-dasharray="24.0625 8.02083" fill="none" fill-rule="evenodd"/><path d="M2134 1039C2134 1024.64 2145.64 1013 2160 1013 2174.36 1013 2186 1024.64 2186 1039 2186 1053.36 2174.36 1065 2160 1065 2145.64 1065 2134 1053.36 2134 1039Z" stroke="#F8F0E3" stroke-width="8.02083" stroke-miterlimit="8" fill="#582156" fill-rule="evenodd"/><path d="M1916 1165C1916 1150.64 1927.64 1139 1942 1139 1956.36 1139 1968 1150.64 1968 1165 1968 1179.36 1956.36 1191 1942 1191 1927.64 1191 1916 1179.36 1916 1165Z" stroke="#F8F0E3" stroke-width="8.02083" stroke-miterlimit="8" fill="#582156" fill-rule="evenodd"/><path d="M1710 1065C1710 1050.64 1721.64 1039 1736 1039 1750.36 1039 1762 1050.64 1762 1065 1762 1079.36 1750.36 1091 1736 1091 1721.64 1091 1710 1079.36 1710 1065Z" stroke="#F8F0E3" stroke-width="8.02083" stroke-miterlimit="8" fill="#582156" fill-rule="evenodd"/><path d="M1486 1165C1486 1150.64 1497.64 1139 1512 1139 1526.36 1139 1538 1150.64 1538 1165 1538 1179.36 1526.36 1191 1512 1191 1497.64 1191 1486 1179.36 1486 1165Z" stroke="#F8F0E3" stroke-width="8.02083" stroke-miterlimit="8" fill="#582156" fill-rule="evenodd"/><path d="M1064 1103.5C1064 1089.42 1075.64 1078 1090 1078 1104.36 1078 1116 1089.42 1116 1103.5 1116 1117.58 1104.36 1129 1090 1129 1075.64 1129 1064 1117.58 1064 1103.5Z" stroke="#F8F0E3" stroke-width="8.02083" stroke-miterlimit="8" fill="#582156" fill-rule="evenodd"/><path d="M1284 1199.5C1284 1185.42 1295.64 1174 1310 1174 1324.36 1174 1336 1185.42 1336 1199.5 1336 1213.58 1324.36 1225 1310 1225 1295.64 1225 1284 1213.58 1284 1199.5Z" stroke="#F8F0E3" stroke-width="8.02083" stroke-miterlimit="8" fill="#582156" fill-rule="evenodd"/><path d="M846 1451.84 856.312 1451.84 856.312 1462.16 846 1462.16ZM866.625 1451.84 876.937 1451.84 876.937 1462.16 866.625 1462.16ZM887.25 1451.84 897.562 1451.84 897.562 1462.16 887.25 1462.16ZM907.875 1451.84 918.187 1451.84 918.187 1462.16 907.875 1462.16ZM928.5 1451.84 938.812 1451.84 938.812 1462.16 928.5 1462.16ZM949.125 1451.84 959.437 1451.84 959.437 1462.16 949.125 1462.16ZM969.75 1451.84 980.062 1451.84 980.062 1462.16 969.75 1462.16ZM990.375 1451.84 1000.69 1451.84 1000.69 1462.16 990.375 1462.16ZM1011 1451.84 1021.31 1451.84 1021.31 1462.16 1011 1462.16ZM1031.62 1451.84 1041.94 1451.84 1041.94 1462.16 1031.62 1462.16ZM1052.25 1451.84 1062.56 1451.84 1062.56 1462.16 1052.25 1462.16ZM1072.88 1451.84 1083.19 1451.84 1083.19 1462.16 1072.88 1462.16ZM1093.5 1451.84 1103.81 1451.84 1103.81 1462.16 1093.5 1462.16ZM1114.12 1451.84 1124.44 1451.84 1124.44 1462.16 1114.12 1462.16ZM1134.75 1451.84 1145.06 1451.84 1145.06 1462.16 1134.75 1462.16ZM1155.38 1451.84 1165.69 1451.84 1165.69 1462.16 1155.38 1462.16ZM1176 1451.84 1186.31 1451.84 1186.31 1462.16 1176 1462.16ZM1196.62 1451.84 1206.94 1451.84 1206.94 1462.16 1196.62 1462.16ZM1217.25 1451.84 1227.56 1451.84 1227.56 1462.16 1217.25 1462.16ZM1237.88 1451.84 1248.19 1451.84 1248.19 1462.16 1237.88 1462.16ZM1258.5 1451.84 1268.81 1451.84 1268.81 1462.16 1258.5 1462.16ZM1279.12 1451.84 1289.44 1451.84 1289.44 1462.16 1279.12 1462.16ZM1299.75 1451.84 1310.06 1451.84 1310.06 1462.16 1299.75 1462.16ZM1320.38 1451.84 1330.69 1451.84 1330.69 1462.16 1320.38 1462.16ZM1341 1451.84 1351.31 1451.84 1351.31 1462.16 1341 1462.16ZM1361.62 1451.84 1371.94 1451.84 1371.94 1462.16 1361.62 1462.16ZM1382.25 1451.84 1392.56 1451.84 1392.56 1462.16 1382.25 1462.16ZM1402.88 1451.84 1413.19 1451.84 1413.19 1462.16 1402.88 1462.16ZM1423.5 1451.84 1433.81 1451.84 1433.81 1462.16 1423.5 1462.16ZM1444.12 1451.84 1454.44 1451.84 1454.44 1462.16 1444.12 1462.16ZM1464.75 1451.84 1475.06 1451.84 1475.06 1462.16 1464.75 1462.16ZM1485.38 1451.84 1495.69 1451.84 1495.69 1462.16 1485.38 1462.16ZM1506 1451.84 1516.31 1451.84 1516.31 1462.16 1506 1462.16ZM1526.62 1451.84 1536.94 1451.84 1536.94 1462.16 1526.62 1462.16ZM1547.25 1451.84 1557.56 1451.84 1557.56 1462.16 1547.25 1462.16ZM1567.88 1451.84 1578.19 1451.84 1578.19 1462.16 1567.88 1462.16ZM1588.5 1451.84 1598.81 1451.84 1598.81 1462.16 1588.5 1462.16ZM1609.12 1451.84 1619.44 1451.84 1619.44 1462.16 1609.12 1462.16ZM1629.75 1451.84 1640.06 1451.84 1640.06 1462.16 1629.75 1462.16ZM1650.38 1451.84 1660.69 1451.84 1660.69 1462.16 1650.38 1462.16ZM1671 1451.84 1681.31 1451.84 1681.31 1462.16 1671 1462.16ZM1691.62 1451.84 1701.94 1451.84 1701.94 1462.16 1691.62 1462.16ZM1712.25 1451.84 1722.56 1451.84 1722.56 1462.16 1712.25 1462.16ZM1732.88 1451.84 1743.19 1451.84 1743.19 1462.16 1732.88 1462.16ZM1753.5 1451.84 1763.81 1451.84 1763.81 1462.16 1753.5 1462.16ZM1774.12 1451.84 1784.44 1451.84 1784.44 1462.16 1774.12 1462.16ZM1794.75 1451.84 1805.06 1451.84 1805.06 1462.16 1794.75 1462.16ZM1815.38 1451.84 1825.69 1451.84 1825.69 1462.16 1815.38 1462.16ZM1836 1451.84 1846.31 1451.84 1846.31 1462.16 1836 1462.16ZM1856.62 1451.84 1866.94 1451.84 1866.94 1462.16 1856.62 1462.16ZM1877.25 1451.84 1887.56 1451.84 1887.56 1462.16 1877.25 1462.16ZM1897.88 1451.84 1908.19 1451.84 1908.19 1462.16 1897.88 1462.16ZM1918.5 1451.84 1928.81 1451.84 1928.81 1462.16 1918.5 1462.16ZM1939.12 1451.84 1949.44 1451.84 1949.44 1462.16 1939.12 1462.16ZM1959.75 1451.84 1970.06 1451.84 1970.06 1462.16 1959.75 1462.16ZM1980.38 1451.84 1990.69 1451.84 1990.69 1462.16 1980.38 1462.16ZM2001 1451.84 2011.31 1451.84 2011.31 1462.16 2001 1462.16ZM2021.62 1451.84 2031.94 1451.84 2031.94 1462.16 2021.62 1462.16ZM2042.25 1451.84 2052.56 1451.84 2052.56 1462.16 2042.25 1462.16ZM2062.88 1451.84 2073.19 1451.84 2073.19 1462.16 2062.88 1462.16ZM2083.5 1451.84 2093.81 1451.84 2093.81 1462.16 2083.5 1462.16ZM2104.12 1451.84 2114.44 1451.84 2114.44 1462.16 2104.12 1462.16ZM2124.75 1451.84 2135.06 1451.84 2135.06 1462.16 2124.75 1462.16ZM2145.38 1451.84 2155.69 1451.84 2155.69 1462.16 2145.38 1462.16ZM2166 1451.84 2176.31 1451.84 2176.31 1462.16 2166 1462.16ZM2186.62 1451.84 2196.94 1451.84 2196.94 1462.16 2186.62 1462.16ZM2207.25 1451.84 2217.56 1451.84 2217.56 1462.16 2207.25 1462.16ZM2227.88 1451.84 2238.19 1451.84 2238.19 1462.16 2227.88 1462.16ZM2248.5 1451.84 2258.81 1451.84 2258.81 1462.16 2248.5 1462.16ZM2269.12 1451.84 2279.44 1451.84 2279.44 1462.16 2269.12 1462.16ZM2289.75 1451.84 2300.06 1451.84 2300.06 1462.16 2289.75 1462.16ZM2310.38 1451.84 2320.69 1451.84 2320.69 1462.16 2310.38 1462.16ZM2331 1451.84 2341.31 1451.84 2341.31 1462.16 2331 1462.16ZM2351.62 1451.84 2361.94 1451.84 2361.94 1462.16 2351.62 1462.16ZM2372.25 1451.84 2382.56 1451.84 2382.56 1462.16 2372.25 1462.16ZM2392.88 1451.84 2403.19 1451.84 2403.19 1462.16 2392.88 1462.16ZM2413.5 1451.84 2423.81 1451.84 2423.81 1462.16 2413.5 1462.16ZM2434.12 1451.84 2444.44 1451.84 2444.44 1462.16 2434.12 1462.16ZM2454.75 1451.84 2465.06 1451.84 2465.06 1462.16 2454.75 1462.16ZM2475.38 1451.84 2485.69 1451.84 2485.69 1462.16 2475.38 1462.16ZM2496 1451.84 2506.31 1451.84 2506.31 1462.16 2496 1462.16ZM2516.62 1451.84 2526.94 1451.84 2526.94 1462.16 2516.62 1462.16ZM2537.25 1451.84 2547.56 1451.84 2547.56 1462.16 2537.25 1462.16ZM2557.88 1451.84 2568.19 1451.84 2568.19 1462.16 2557.88 1462.16ZM2578.5 1451.84 2588.81 1451.84 2588.81 1462.16 2578.5 1462.16ZM2599.12 1451.84 2609.44 1451.84 2609.44 1462.16 2599.12 1462.16ZM2619.75 1451.84 2630.06 1451.84 2630.06 1462.16 2619.75 1462.16ZM2640.38 1451.84 2650.69 1451.84 2650.69 1462.16 2640.38 1462.16ZM2661 1451.84 2671.31 1451.84 2671.31 1462.16 2661 1462.16ZM2681.62 1451.84 2691.94 1451.84 2691.94 1462.16 2681.62 1462.16ZM2702.25 1451.84 2712.56 1451.84 2712.56 1462.16 2702.25 1462.16ZM2722.88 1451.84 2733.19 1451.84 2733.19 1462.16 2722.88 1462.16ZM2743.5 1451.84 2753.81 1451.84 2753.81 1462.16 2743.5 1462.16ZM2764.12 1451.84 2774.44 1451.84 2774.44 1462.16 2764.12 1462.16ZM2784.75 1451.84 2795.06 1451.84 2795.06 1462.16 2784.75 1462.16ZM2805.38 1451.84 2815.69 1451.84 2815.69 1462.16 2805.38 1462.16ZM2826 1451.84 2836.31 1451.84 2836.31 1462.16 2826 1462.16ZM2846.62 1451.84 2856.94 1451.84 2856.94 1462.16 2846.62 1462.16ZM2867.25 1451.84 2877.56 1451.84 2877.56 1462.16 2867.25 1462.16ZM2887.88 1451.84 2898.19 1451.84 2898.19 1462.16 2887.88 1462.16ZM2894.32 1431.22 2945.88 1457 2894.32 1482.78Z" fill="#421940"/><path d="M1941 1416 1941 1493.95" stroke="#582156" stroke-width="10.3125" stroke-miterlimit="8" fill="none" fill-rule="evenodd"/><path d="M2154 1416 2154 1493.95" stroke="#582156" stroke-width="10.3125" stroke-miterlimit="8" fill="none" fill-rule="evenodd"/><path d="M1729 1416 1729 1493.95" stroke="#582156" stroke-width="10.3125" stroke-miterlimit="8" fill="none" fill-rule="evenodd"/><path d="M1304 1416 1304 1493.95" stroke="#582156" stroke-width="10.3125" stroke-miterlimit="8" fill="none" fill-rule="evenodd"/><path d="M1516 1416 1516 1493.95" stroke="#582156" stroke-width="10.3125" stroke-miterlimit="8" fill="none" fill-rule="evenodd"/><path d="M1092 1416 1092 1493.95" stroke="#582156" stroke-width="10.3125" stroke-miterlimit="8" fill="none" fill-rule="evenodd"/><path d="M1153.88 1657.13 1242.52 1657.13 1242.52 1670.88 1153.88 1670.88ZM1160.75 1698.38 1092 1664 1160.75 1629.63ZM1235.64 1629.63 1304.39 1664 1235.64 1698.38Z" fill="#551038"/><path d="M1092 1501 1092 1669.63" stroke="#582156" stroke-width="10.3125" stroke-miterlimit="8" stroke-dasharray="10.3125 10.3125" fill="none" fill-rule="evenodd"/><path d="M1304 1501 1304 1669.63" stroke="#582156" stroke-width="10.3125" stroke-miterlimit="8" stroke-dasharray="10.3125 10.3125" fill="none" fill-rule="evenodd"/><text font-family="Avenir Next LT Pro,Avenir Next LT Pro_MSFontService,sans-serif" font-weight="700" font-size="73" transform="matrix(1 0 0 1 1061.1 1782)">15 min.</text><text font-family="Avenir Next LT Pro,Avenir Next LT Pro_MSFontService,sans-serif" font-weight="700" font-size="73" transform="matrix(1 0 0 1 1061.1 1870)">p</text><text font-family="Avenir Next LT Pro,Avenir Next LT Pro_MSFontService,sans-serif" font-weight="700" font-size="73" transform="matrix(1 0 0 1 1109.23 1870)">er PTU</text><text font-family="Avenir Next LT Pro,Avenir Next LT Pro_MSFontService,sans-serif" font-weight="700" font-size="55" transform="matrix(1 0 0 1 2308.93 1410)">Up to 6 hours ahead</text></g></svg>